<?xml version="1.0" standalone="no"?>
<!DOCTYPE svg PUBLIC "-//W3C//DTD SVG 20010904//EN"
 "http://www.w3.org/TR/2001/REC-SVG-20010904/DTD/svg10.dtd">
<svg version="1.0" xmlns="http://www.w3.org/2000/svg"
 width="276.000000pt" height="276.000000pt" viewBox="0 0 276.000000 276.000000"
 preserveAspectRatio="xMidYMid meet">
<metadata>
Created by potrace 1.14, written by Peter Selinger 2001-2017
</metadata>
<g transform="translate(0.000000,276.000000) scale(0.100000,-0.100000)"
fill="#000000" stroke="none">
<path d="M1275 2680 c-11 -4 -26 -5 -34 -2 -9 3 -12 1 -7 -6 5 -9 1 -9 -18 -2
-22 8 -26 7 -26 -8 0 -13 -2 -14 -9 -4 -10 16 -31 12 -49 -8 -8 -8 -11 -9 -7
-2 7 14 -11 17 -19 3 -3 -5 -15 -7 -26 -4 -11 3 -20 1 -20 -5 0 -6 -11 -9 -25
-6 -15 3 -25 0 -25 -7 0 -8 -4 -8 -15 1 -12 10 -15 9 -15 -6 0 -15 -2 -16 -9
-5 -7 11 -9 11 -14 0 -3 -8 -6 -9 -6 -3 -1 15 -91 -5 -91 -20 0 -6 -5 -4 -10
4 -7 11 -10 11 -10 2 0 -8 -5 -10 -12 -6 -8 5 -9 1 -4 -12 6 -15 5 -17 -5 -6
-18 17 -24 16 -56 -16 -15 -15 -25 -23 -20 -18 14 20 7 26 -11 9 -11 -10 -17
-22 -14 -27 3 -5 -2 -7 -11 -3 -11 4 -17 1 -17 -8 0 -17 -34 -37 -46 -27 -5 4
-2 -2 6 -12 10 -13 11 -17 2 -12 -14 8 -89 -60 -84 -77 1 -5 -7 -11 -18 -14
-13 -3 -19 -11 -16 -19 3 -8 -1 -14 -9 -14 -8 0 -15 -4 -15 -10 0 -5 -6 -10
-14 -10 -8 0 -18 -5 -22 -12 -5 -7 -3 -8 6 -3 9 5 11 4 6 -3 -4 -7 -14 -12
-22 -12 -11 0 -14 -6 -9 -22 4 -16 3 -19 -3 -9 -8 10 -14 11 -28 1 -18 -11
-18 -11 1 -5 16 5 18 4 7 -7 -7 -7 -18 -13 -25 -13 -7 0 -11 -8 -11 -17 1 -9
-4 -14 -11 -12 -6 3 -33 -19 -60 -48 l-48 -53 24 45 c13 25 27 47 32 48 4 2 7
12 7 23 0 10 5 19 11 19 5 0 7 5 4 10 -3 6 0 13 8 16 9 3 13 13 9 26 -3 14 -1
19 6 14 8 -5 12 1 12 14 0 14 -4 19 -12 15 -7 -4 -5 0 4 7 9 8 14 18 10 24
-12 16 -34 15 -48 -3 -13 -17 -14 -17 -7 2 6 17 5 18 -9 5 -9 -8 -14 -18 -12
-22 2 -4 -5 -9 -16 -13 -11 -4 -18 -11 -15 -16 4 -5 -4 -9 -17 -10 -13 0 -18
-3 -11 -6 10 -3 10 -7 0 -18 -7 -7 -16 -10 -21 -7 -5 3 -6 0 -2 -6 4 -7 2 -12
-4 -12 -7 0 -7 -7 1 -22 12 -22 11 -22 -7 -8 -10 8 -16 10 -11 5 4 -4 0 -19
-9 -33 -12 -18 -12 -22 -3 -17 8 4 3 -3 -11 -14 -17 -14 -20 -21 -10 -21 12 0
12 -2 2 -9 -8 -4 -14 -12 -15 -17 -1 -5 -5 -8 -9 -7 -4 2 -5 -3 -2 -11 3 -8 1
-17 -4 -20 -6 -3 -8 -16 -4 -28 3 -13 1 -19 -6 -15 -6 5 -9 -2 -7 -18 1 -14
-2 -25 -8 -25 -5 0 -3 -8 4 -17 8 -10 9 -14 2 -10 -6 4 -14 3 -18 -3 -3 -5 0
-10 7 -10 8 0 9 -3 3 -8 -23 -16 -34 -49 -22 -62 9 -10 9 -11 -1 -6 -8 5 -12
-2 -12 -23 0 -18 -5 -31 -12 -31 -10 0 -10 -2 0 -9 11 -6 10 -10 -4 -15 -13
-5 -14 -10 -6 -18 7 -7 7 -19 2 -34 -6 -15 -5 -26 2 -30 7 -5 5 -12 -7 -21
-11 -7 -13 -13 -7 -13 7 0 12 -5 12 -11 0 -5 -4 -8 -8 -5 -5 3 -9 -1 -9 -9 0
-8 5 -11 10 -8 6 4 7 1 1 -8 -4 -8 -10 -36 -11 -64 -4 -62 -6 -76 -17 -94 -6
-10 -5 -12 2 -7 7 4 12 3 12 -3 0 -5 -5 -13 -11 -17 -8 -4 -7 -9 2 -15 11 -7
11 -9 -1 -9 -13 0 -13 -1 0 -10 9 -6 10 -10 3 -10 -6 0 -11 -13 -11 -30 1 -18
5 -27 12 -23 7 5 7 2 0 -8 -13 -15 -13 -93 -1 -105 4 -4 7 -12 7 -18 0 -6 -5
-4 -10 4 -6 9 -10 10 -10 3 0 -6 4 -14 9 -17 5 -3 8 -20 7 -37 -1 -17 2 -36 8
-43 6 -6 12 -29 14 -51 2 -22 8 -45 13 -51 7 -8 6 -14 0 -18 -6 -4 -3 -20 9
-41 17 -31 17 -33 2 -28 -9 3 -6 -3 8 -13 14 -11 26 -26 28 -34 1 -10 -2 -9
-13 4 -8 11 -15 16 -15 10 0 -5 11 -21 24 -35 19 -20 22 -29 13 -38 -9 -9 -8
-10 7 -5 13 5 17 4 12 -4 -4 -7 -2 -12 3 -12 6 0 11 -9 11 -20 0 -11 5 -20 11
-20 5 0 7 -4 4 -10 -3 -5 0 -7 9 -4 11 4 13 0 9 -14 -3 -14 3 -25 20 -37 14
-9 30 -29 37 -45 7 -17 16 -27 21 -24 5 3 9 -2 9 -11 0 -9 4 -13 10 -10 6 3 7
-1 4 -9 -4 -11 0 -16 12 -16 16 0 17 -2 4 -10 -12 -8 -10 -10 9 -10 19 0 21
-3 12 -14 -10 -12 -7 -18 13 -31 14 -9 31 -13 37 -9 8 4 9 3 5 -5 -8 -12 31
-54 43 -47 3 2 17 -11 31 -28 19 -23 20 -27 5 -16 -18 14 -19 14 -7 -2 8 -10
20 -14 29 -11 11 4 14 2 9 -5 -4 -8 0 -12 11 -12 15 0 16 -2 3 -10 -12 -8 -11
-10 8 -10 12 0 22 -5 22 -11 0 -5 5 -7 12 -3 8 5 9 2 5 -10 -4 -10 -3 -15 3
-11 11 7 32 -29 22 -40 -4 -5 -1 -5 6 -1 7 4 9 13 6 19 -3 7 5 0 18 -15 20
-22 27 -25 38 -15 10 9 11 9 6 -1 -4 -6 -2 -12 4 -12 6 0 9 -4 5 -10 -3 -5 12
-14 34 -20 22 -6 42 -16 44 -23 4 -9 8 -8 16 3 6 8 11 10 11 4 0 -5 -5 -15
-11 -21 -7 -7 -3 -10 15 -8 14 2 29 -1 32 -7 4 -6 10 -5 16 3 7 10 9 9 5 -7
-2 -11 1 -21 7 -21 6 0 20 -4 31 -8 16 -5 17 -5 5 4 -22 16 -4 13 29 -4 16 -8
32 -11 36 -7 3 4 5 0 3 -8 -2 -8 3 -14 10 -12 6 1 12 -2 12 -8 0 -5 11 -10 25
-10 14 0 25 -6 25 -12 0 -9 4 -8 10 2 6 10 10 11 10 3 0 -7 12 -13 28 -13 21
0 24 -2 12 -10 -11 -7 -9 -8 11 -6 13 1 31 6 38 11 10 5 12 4 7 -3 -4 -7 -2
-12 4 -12 6 0 8 -6 4 -12 -4 -7 3 -4 16 7 13 11 20 14 15 6 -6 -11 -2 -13 19
-9 14 3 26 2 26 -3 0 -4 13 -4 29 1 15 4 34 4 42 0 7 -5 21 -4 31 1 12 6 18 6
18 0 0 -6 23 -10 53 -9 29 1 58 -1 65 -6 7 -4 12 -2 12 6 0 9 3 9 10 -2 6 -9
10 -10 10 -3 0 7 12 10 30 8 17 -2 28 -1 26 4 -3 4 1 8 9 8 8 0 15 -4 15 -8 0
-5 11 -4 24 1 13 5 27 6 30 3 3 -4 6 -1 6 5 0 7 5 12 11 12 5 0 8 -4 5 -8 -3
-5 1 -9 9 -9 8 0 15 4 15 8 0 4 7 10 16 13 12 4 15 2 10 -9 -4 -12 -2 -13 14
-3 10 7 16 17 12 23 -3 5 2 4 11 -4 13 -11 17 -11 17 -1 0 8 3 10 7 7 3 -4 13
-1 21 6 13 10 15 9 8 -3 -7 -13 -6 -13 6 0 7 8 19 15 26 16 29 2 33 5 26 15
-4 7 1 7 16 -1 12 -6 24 -9 28 -6 3 3 -1 6 -9 6 -8 1 3 10 25 20 21 11 43 17
47 14 5 -3 9 2 9 10 0 9 3 15 8 15 19 -3 33 2 27 11 -3 6 -2 10 4 10 5 0 12
-6 14 -12 4 -10 6 -10 6 0 1 7 5 10 11 7 5 -3 7 0 4 9 -4 11 0 14 15 11 12 -2
20 1 18 8 -1 7 6 11 16 11 9 -1 17 5 17 13 0 10 6 13 16 9 12 -5 15 -2 10 10
-6 15 -4 15 11 3 9 -8 14 -9 10 -2 -4 7 1 14 13 18 11 4 17 11 14 17 -5 8 -1
9 11 4 16 -6 16 -4 4 10 -13 16 -12 16 10 5 14 -8 21 -9 17 -2 -4 6 -2 19 4
28 11 17 11 17 6 0 -3 -9 -1 -17 4 -17 6 0 10 4 10 9 0 5 15 25 34 44 24 25
37 32 48 26 12 -6 15 -4 14 9 -1 12 6 17 22 16 17 -1 20 2 12 11 -8 10 -6 13
7 11 12 -1 17 5 16 19 -1 20 -1 20 13 1 14 -20 14 -20 15 0 1 10 1 22 1 25 -1
4 6 6 16 5 11 -1 16 6 16 17 -1 10 3 16 8 15 6 -2 21 5 34 16 17 16 20 24 12
34 -9 10 -8 12 3 10 8 -2 13 3 11 11 -2 9 3 11 14 7 14 -5 15 -4 4 9 -11 14
-7 19 12 16 4 0 10 10 14 24 3 14 10 23 14 20 5 -3 7 6 5 20 -2 22 0 23 14 13
9 -7 13 -8 8 -3 -4 4 0 19 9 33 9 13 11 21 5 18 -6 -4 -11 -2 -11 3 0 6 7 11
16 11 8 0 13 4 9 9 -3 5 1 16 9 24 11 11 12 17 3 27 -8 9 -8 11 -1 7 7 -4 15
0 18 9 4 10 2 13 -7 9 -6 -4 -4 0 6 8 20 16 23 31 5 22 -7 -4 -4 1 6 9 11 9
14 16 8 16 -7 0 -12 5 -12 11 0 5 4 8 9 5 9 -6 20 40 24 97 1 15 6 27 10 27 5
0 5 4 2 10 -3 5 -1 19 5 30 9 17 8 20 -7 21 -16 0 -16 1 2 9 11 5 14 9 7 9 -8
1 -10 6 -6 13 12 19 12 48 0 48 -5 0 -1 7 10 15 10 8 15 15 9 14 -23 -3 -27 2
-14 17 10 13 10 17 -2 25 -8 5 -9 9 -4 9 15 0 16 40 2 40 -7 0 -4 5 6 11 10 6
14 15 10 22 -11 18 -11 47 0 47 6 0 2 10 -9 22 -10 12 -13 18 -6 14 8 -5 12
-1 12 11 0 11 -6 25 -12 32 -10 11 -10 13 0 7 15 -9 16 10 2 19 -8 5 -8 11 0
20 8 9 8 15 0 20 -14 9 -13 28 3 19 6 -4 2 4 -10 17 -18 20 -20 28 -11 37 9 9
9 12 -1 12 -11 0 -11 3 -1 15 7 9 8 15 2 15 -5 0 -9 13 -8 30 2 25 0 27 -13
17 -12 -10 -13 -9 -2 12 11 19 11 25 0 32 -8 5 -10 9 -5 9 5 0 2 8 -5 17 -10
11 -10 14 -1 9 6 -4 12 -2 12 3 0 6 -6 11 -12 11 -9 0 -8 4 2 10 12 7 12 10 1
10 -8 0 -11 6 -7 15 3 9 -1 18 -10 22 -13 5 -13 7 -2 14 10 7 9 9 -4 9 -21 0
-24 26 -5 33 7 3 4 6 -6 6 -10 1 -15 6 -12 11 3 6 0 10 -7 10 -9 0 -9 3 2 10
13 9 13 10 0 11 -8 1 -19 1 -24 0 -5 -1 -4 5 4 13 7 10 8 16 2 16 -6 0 -9 9
-7 19 3 15 -1 18 -12 14 -10 -4 -14 -2 -10 4 4 6 0 18 -8 26 -11 12 -12 17 -2
20 9 4 9 6 0 6 -7 1 -13 8 -13 16 0 8 -4 15 -10 15 -5 0 -7 7 -4 15 4 10 0 15
-15 15 -12 0 -21 5 -21 11 0 5 6 7 13 3 15 -9 -23 38 -40 49 -7 4 -10 14 -6
23 3 9 0 14 -8 12 -8 -2 -13 4 -13 14 1 10 -2 15 -7 12 -5 -3 -9 -2 -9 3 0 4
-10 19 -23 33 -12 14 -18 20 -13 13 6 -10 4 -12 -8 -7 -13 5 -21 29 -18 55 1
4 -9 4 -21 1 -12 -3 -19 -1 -15 3 4 4 0 14 -10 22 -9 8 -11 12 -5 8 9 -4 11
-1 6 10 -5 13 -7 14 -14 3 -7 -10 -12 -9 -26 6 -17 19 -17 19 2 5 18 -13 19
-13 6 4 -7 9 -20 17 -27 17 -8 0 -14 5 -14 11 0 5 -4 7 -10 4 -5 -3 -10 1 -10
10 0 9 -4 13 -10 10 -6 -3 -10 4 -10 17 0 18 -2 20 -10 8 -8 -13 -10 -12 -10
3 0 10 -8 17 -20 17 -12 0 -20 7 -20 17 0 9 -3 14 -6 10 -4 -3 -14 2 -23 11
-9 10 -12 12 -7 5 12 -18 3 -16 -22 6 -12 10 -18 21 -15 25 4 4 0 4 -10 0 -11
-4 -17 -1 -17 7 0 7 -3 9 -7 6 -3 -4 -12 -2 -19 4 -8 6 -21 9 -29 5 -9 -3 -18
1 -21 9 -4 8 -10 12 -15 9 -5 -3 -9 -1 -9 4 0 6 -9 8 -20 5 -11 -3 -20 0 -20
6 0 6 -5 11 -11 11 -5 0 -7 -6 -3 -12 6 -10 5 -10 -7 -1 -20 16 -31 17 -40 1
-5 -7 -9 -8 -9 -2 0 11 -35 12 -47 1 -3 -4 4 -18 16 -31 14 -15 19 -26 12 -31
-6 -3 -11 -2 -11 3 0 14 -47 61 -54 54 -4 -3 -11 0 -16 8 -8 12 -10 12 -10 1
0 -11 -3 -11 -17 0 -15 12 -16 12 -8 -1 6 -12 5 -13 -6 -2 -7 6 -17 12 -22 12
-4 0 -5 -6 -1 -12 6 -10 4 -10 -7 0 -15 14 -33 16 -25 3 7 -10 -115 -7 -132 3
-7 4 -12 1 -12 -6 0 -8 -3 -9 -8 -3 -8 12 -22 13 -39 2 -6 -4 -14 -3 -17 2 -8
13 -56 11 -56 -3 0 -8 -3 -8 -8 0 -9 14 -62 13 -62 0 0 -7 -3 -7 -8 0 -4 7
-15 8 -27 4z m-685 -280 c0 -5 -5 -10 -11 -10 -5 0 -7 5 -4 10 3 6 8 10 11 10
2 0 4 -4 4 -10z m-360 -1660 c0 -5 -2 -10 -4 -10 -3 0 -8 5 -11 10 -3 6 -1 10
4 10 6 0 11 -4 11 -10z m2279 -133 c-2 -1 -13 -9 -24 -17 -19 -14 -19 -14 -6
3 7 9 18 17 24 17 6 0 8 -1 6 -3z m-2129 -63 c0 -2 -9 0 -20 6 -11 6 -20 13
-20 16 0 2 9 0 20 -6 11 -6 20 -13 20 -16z"/>
<path d="M430 459 c0 -5 5 -7 10 -4 6 3 10 8 10 11 0 2 -4 4 -10 4 -5 0 -10
-5 -10 -11z"/>
<path d="M2290 415 c-7 -9 -11 -17 -9 -20 3 -2 10 5 17 15 14 24 10 26 -8 5z"/>
</g>
</svg>
